<svg xmlns="http://www.w3.org/2000/svg" viewBox="0 0 49.82 49.82"><defs><style>.cls-1{fill:#637287;}.cls-2{fill:#253556;}.cls-3{fill:#fff;}</style></defs><g id="Layer_2" data-name="Layer 2"><g id="Layer_1-2" data-name="Layer 1"><circle class="cls-1" cx="24.91" cy="24.91" r="24.91"/><circle class="cls-2" cx="24.74" cy="24.91" r="18.61"/><path class="cls-3" d="M20.51 21.16h-7.45a.75.75 0 0 1 0-1.5h7.45a.75.75 0 0 1 0 1.5zM20.51 24.61h-9.82a.75.75 0 1 1 0-1.5h9.82a.75.75 0 0 1 0 1.5zM20.51 28.07h-5.25a.75.75 0 0 1 0-1.5h5.25a.75.75 0 0 1 0 1.5zM32.95 25.36a2.74 2.74 0 0 1-1 2.21 4.94 4.94 0 0 1-2.78 1v1.77H28V28.6a9.6 9.6 0 0 1-3.7-.74v-2.28a10 10 0 0 0 1.81.66 9.68 9.68 0 0 0 1.89.34V23.9l-.58-.22A6.46 6.46 0 0 1 25 22.21a2.81 2.81 0 0 1-.71-2 2.55 2.55 0 0 1 1-2.06 5 5 0 0 1 2.73-1v-1.26h1.18v1.29a9.81 9.81 0 0 1 3.58.79l-.81 2a9.34 9.34 0 0 0-2.76-.67v2.55A13.28 13.28 0 0 1 31.57 23a3.28 3.28 0 0 1 1 1 2.59 2.59 0 0 1 .38 1.36zm-6.07-5.11a.82.82 0 0 0 .26.63 3.13 3.13 0 0 0 .85.51v-2q-1.11.13-1.11.86zm3.47 5.24a.78.78 0 0 0-.29-.61 3.85 3.85 0 0 0-.88-.52v2.15q1.17-.2 1.17-1.02z"/></g></g></svg>