<svg xmlns="http://www.w3.org/2000/svg" width="50" height="50"><path fill="#FFC73A" d="M24.907 10.635c1.237 0 2.24 1.003 2.24 2.24s-1.003 2.24-2.24 2.24-2.24-1.003-2.24-2.24 1.003-2.24 2.24-2.24M4.897 19.748c.872 0 1.578.707 1.578 1.578 0 .872-.706 1.58-1.578 1.58s-1.578-.708-1.578-1.58c0-.87.705-1.578 1.577-1.578M44.917 19.748c.872 0 1.577.707 1.577 1.578 0 .872-.705 1.58-1.577 1.58s-1.578-.708-1.578-1.58c0-.87.705-1.578 1.577-1.578M41.25 25.095L36.72 28.2c-2.648 1.833-6.314.814-7.638-2.088L25.62 18.73c-.306-.61-1.17-.61-1.426 0l-3.36 7.33c-1.375 3.005-5.143 3.973-7.79 2.038L8.666 24.89c-.61-.458-1.478.152-1.223.917L12.025 39.3c.05.152.204.204.307.204h25.304c.153 0 .255-.103.306-.204l4.48-13.238c.306-.763-.56-1.374-1.17-.967"/></svg>