<svg xmlns="http://www.w3.org/2000/svg" xmlns:xlink="http://www.w3.org/1999/xlink" width="50" height="50"><path fill="#FFC73A" d="M44.283 24.958c0 10.72-8.69 19.41-19.41 19.41s-19.408-8.69-19.408-19.41 8.69-19.41 19.408-19.41c10.72 0 19.41 8.69 19.41 19.41"/><g opacity=".61"><defs><rect id="a" x="-.03" y=".051" width="49.811" height="49.815"/></defs><clipPath id="b"><use xlink:href="#a" overflow="visible"/></clipPath><path clip-path="url(#b)" fill="#FFC73A" d="M49.78 24.958c0 13.756-11.15 24.908-24.907 24.908S-.033 38.716-.033 24.958 11.117.05 24.873.05 49.78 11.202 49.78 24.958"/></g><path fill="#FFF" d="M28.406 24.342c0 2.244-.368 3.906-1.104 4.984s-1.867 1.617-3.396 1.617c-1.482 0-2.6-.557-3.354-1.67s-1.13-2.758-1.13-4.93c0-2.27.367-3.94 1.1-5.015s1.86-1.613 3.384-1.613c1.482 0 2.603.562 3.36 1.688s1.14 2.77 1.14 4.94zm-6.284 0c0 1.576.136 2.706.41 3.388.27.683.73 1.023 1.374 1.023.633 0 1.09-.346 1.37-1.037s.423-1.816.423-3.375c0-1.575-.144-2.707-.427-3.396-.285-.688-.74-1.033-1.367-1.033-.64 0-1.096.345-1.37 1.034s-.414 1.822-.414 3.398zM37.8 24.342c0 2.244-.37 3.906-1.105 4.984s-1.867 1.617-3.396 1.617c-1.483 0-2.602-.557-3.355-1.67s-1.13-2.758-1.13-4.93c0-2.27.367-3.94 1.1-5.015s1.86-1.613 3.384-1.613c1.48 0 2.602.562 3.36 1.688s1.14 2.77 1.14 4.94zm-6.285 0c0 1.576.136 2.706.41 3.388.27.683.73 1.023 1.374 1.023.632 0 1.09-.346 1.37-1.037s.422-1.816.422-3.375c0-1.575-.143-2.707-.426-3.396-.285-.688-.74-1.033-1.367-1.033-.64 0-1.097.345-1.372 1.034s-.413 1.822-.413 3.398z"/><g><path fill="#FFF" d="M18.83 30.768h-2.717v-7.436l.026-1.222.043-1.336c-.45.45-.765.747-.94.888l-1.477 1.187-1.31-1.636 4.14-3.296h2.232v12.85z"/></g></svg>